<?xml version="1.0" standalone="no"?>
<!DOCTYPE svg PUBLIC "-//W3C//DTD SVG 20010904//EN"
 "http://www.w3.org/TR/2001/REC-SVG-20010904/DTD/svg10.dtd">
<svg version="1.0" xmlns="http://www.w3.org/2000/svg"
 width="900.000000pt" height="780.000000pt" viewBox="0 0 900.000000 780.000000"
 preserveAspectRatio="xMidYMid meet">

<g transform="translate(0.000000,780.000000) scale(0.100000,-0.100000)"
fill="#000000" stroke="none">
<path d="M4014 7105 c-255 -284 -410 -657 -473 -1134 -44 -330 -37 -638 20
-860 16 -64 29 -120 29 -124 0 -4 -26 10 -57 31 -157 105 -261 154 -468 223
-601 199 -1146 210 -1570 33 -130 -55 -128 -48 -62 -216 104 -269 130 -339
124 -344 -3 -3 -101 -63 -219 -133 -160 -97 -214 -134 -216 -150 -2 -12 17
-59 44 -106 227 -404 666 -728 1274 -939 189 -66 309 -93 474 -107 l143 -12
-98 -79 c-115 -93 -180 -162 -297 -318 -332 -442 -510 -876 -537 -1310 -9
-132 9 -299 33 -318 13 -10 40 -12 107 -7 157 11 410 23 413 20 1 -1 28 -112
59 -246 36 -158 62 -249 72 -257 19 -15 54 -11 195 24 400 99 796 382 1150
824 174 216 254 348 330 545 27 70 36 85 42 70 72 -204 131 -319 247 -481 224
-313 477 -570 722 -731 170 -113 356 -197 527 -238 122 -30 144 -31 156 -7 6
9 38 123 72 252 35 129 64 236 65 238 1 1 102 -7 225 -18 292 -26 298 -26 310
4 31 82 35 341 9 521 -44 298 -194 665 -403 985 -166 253 -259 363 -411 485
l-87 70 150 12 c390 33 927 247 1278 509 114 85 275 245 358 354 81 107 142
219 134 242 -4 9 -100 76 -213 149 -114 73 -209 138 -211 144 -2 5 39 111 91
234 52 123 95 232 95 242 0 24 -25 40 -141 90 -188 82 -373 119 -622 126 -306
9 -559 -26 -888 -121 -238 -69 -380 -132 -534 -235 -32 -22 -61 -39 -63 -37
-1 2 10 55 27 118 45 173 54 286 48 567 -6 263 -24 417 -72 619 -76 315 -218
603 -393 792 -64 69 -71 74 -93 63 -13 -6 -107 -79 -209 -162 -101 -83 -187
-151 -190 -151 -3 0 -90 75 -195 165 -120 104 -198 165 -212 165 -14 0 -44
-25 -89 -75z m291 -195 c109 -96 191 -160 204 -160 11 0 103 67 211 155 105
85 195 155 199 155 4 0 30 -28 58 -62 192 -238 323 -564 377 -938 23 -159 38
-430 31 -565 -9 -173 -22 -250 -71 -425 -51 -181 -53 -196 -20 -211 22 -10 38
-2 163 79 234 152 377 212 693 291 451 114 853 116 1190 9 77 -25 182 -69 198
-83 2 -2 -40 -105 -92 -229 -53 -124 -96 -234 -96 -245 0 -14 57 -56 213 -157
116 -75 214 -138 216 -141 10 -8 -139 -212 -212 -289 -242 -256 -564 -448
-997 -596 -221 -75 -387 -108 -543 -108 -139 0 -217 -11 -227 -31 -15 -27 -4
-44 73 -106 247 -199 326 -283 477 -508 209 -312 343 -613 407 -915 24 -110
27 -148 27 -322 1 -108 -2 -200 -6 -204 -4 -4 -121 3 -260 15 -205 18 -254 19
-264 9 -7 -7 -41 -121 -76 -253 l-64 -240 -30 3 c-61 7 -273 85 -373 138 -293
155 -551 387 -806 726 -163 216 -204 292 -322 607 -30 80 -52 103 -80 85 -10
-6 -50 -89 -88 -185 -39 -96 -81 -194 -94 -219 -40 -77 -138 -216 -244 -348
-331 -412 -713 -685 -1091 -782 -131 -33 -114 -55 -176 221 -44 194 -59 244
-75 254 -16 11 -66 10 -264 -1 -134 -8 -247 -11 -250 -8 -12 12 -13 237 -1
334 39 336 177 671 427 1038 163 241 246 331 448 487 127 99 146 125 112 153
-7 6 -94 16 -194 22 -199 11 -255 20 -388 57 -244 67 -607 230 -805 360 -251
166 -456 372 -569 575 l-32 56 216 129 c144 85 217 135 221 149 3 12 -29 109
-85 253 l-89 233 52 23 c72 32 202 70 311 92 142 28 536 26 707 -5 264 -48
579 -142 741 -223 45 -23 146 -84 225 -136 130 -87 145 -95 167 -85 14 7 25
19 25 28 0 9 -20 94 -44 188 -56 214 -66 288 -66 484 0 540 115 989 337 1327
61 91 157 205 175 205 5 0 92 -72 193 -160z"/>
<path d="M4461 5777 c-11 -14 -17 -539 -6 -557 11 -17 63 -12 69 8 2 9 8 133
11 275 8 275 6 287 -40 287 -12 0 -27 -6 -34 -13z"/>
<path d="M4192 5768 c-7 -7 -12 -19 -12 -28 0 -26 99 -493 110 -517 11 -27 51
-31 70 -8 10 12 3 62 -40 268 -29 138 -57 262 -61 275 -9 24 -47 30 -67 10z"/>
<path d="M4747 5768 c-10 -9 -36 -99 -76 -267 -34 -140 -61 -263 -61 -273 0
-10 11 -24 25 -30 21 -9 29 -9 42 4 16 17 132 479 133 530 0 17 -7 31 -19 38
-24 13 -24 13 -44 -2z"/>
<path d="M2695 4714 c-32 -32 -14 -55 95 -122 375 -229 367 -225 389 -213 26
14 28 52 4 73 -27 23 -451 278 -462 278 -5 0 -17 -7 -26 -16z"/>
<path d="M6000 4550 c-123 -72 -231 -136 -239 -145 -21 -21 0 -65 31 -65 13 1
127 61 253 134 178 103 231 138 233 155 4 26 -14 51 -37 51 -9 0 -117 -59
-241 -130z"/>
<path d="M4395 4455 l-6 -53 -280 5 -279 6 0 -76 0 -77 254 0 c140 0 257 -3
259 -7 3 -5 0 -21 -6 -36 l-12 -28 -228 1 -227 1 0 -71 0 -70 190 0 c105 0
190 -3 190 -7 0 -3 -11 -21 -26 -40 l-25 -33 -203 0 -203 0 -7 -46 c-13 -100
-20 -94 97 -95 56 -1 113 -4 127 -8 24 -7 22 -9 -34 -46 -33 -21 -103 -58
-155 -83 -53 -25 -97 -46 -98 -46 -6 -5 80 -156 88 -156 6 0 44 16 86 35 42
19 77 35 79 35 2 0 4 -106 4 -235 l0 -235 105 0 105 0 0 25 c0 25 0 25 93 25
52 0 182 -3 290 -7 l197 -6 0 -24 c0 -23 2 -23 104 -23 99 0 104 1 110 23 3
12 6 123 6 245 0 123 3 222 8 220 4 -1 37 -20 74 -41 38 -21 72 -37 78 -35 5
1 34 39 65 83 l55 79 -88 42 c-48 22 -112 57 -142 77 l-55 37 108 0 107 0 0
68 0 69 -182 6 -183 6 -27 32 c-16 19 -28 37 -28 41 0 4 74 8 165 8 l165 0 0
64 0 63 -37 7 c-21 3 -147 6 -280 6 -144 0 -243 4 -243 9 0 5 5 22 10 36 l10
27 298 -3 297 -4 3 71 3 71 -128 6 c-70 4 -197 7 -282 7 l-154 0 6 44 6 45
-52 5 c-29 3 -77 7 -108 10 l-57 4 -7 -53z m188 -450 c9 -20 17 -38 17 -40 0
-3 -36 -5 -81 -5 l-80 0 22 40 c21 37 26 40 64 40 37 0 43 -3 58 -35z m157
-231 l45 -47 -139 7 c-77 3 -198 6 -270 6 l-130 0 39 40 39 40 186 0 186 0 44
-46z m28 -179 c9 -3 12 -19 10 -47 l-3 -43 -55 -3 c-30 -2 -160 -1 -287 3
l-233 7 0 47 0 46 277 -3 c153 -1 284 -5 291 -7z m-110 -222 l112 -6 0 -49 0
-48 -153 0 c-85 0 -215 3 -290 7 l-137 6 0 49 0 48 178 0 c97 0 228 -3 290 -7z"/>
<path d="M2590 4456 c-6 -8 -10 -25 -8 -38 3 -21 30 -32 258 -111 209 -72 259
-86 277 -78 30 14 31 56 1 72 -27 14 -488 169 -504 169 -6 0 -17 -7 -24 -14z"/>
<path d="M6072 4345 c-129 -41 -240 -79 -248 -86 -29 -24 -10 -69 29 -69 16 0
160 43 475 141 40 13 57 41 42 69 -7 13 -20 20 -38 19 -15 -1 -132 -34 -260
-74z"/>
<path d="M2520 4190 c-24 -24 -25 -34 -5 -53 15 -16 17 -16 338 -51 177 -19
211 -20 227 -9 23 16 25 32 8 56 -10 13 -62 21 -253 42 -132 14 -252 27 -268
30 -19 3 -34 -2 -47 -15z"/>
<path d="M6083 4131 c-204 -18 -233 -25 -233 -61 0 -42 18 -44 258 -26 308 23
321 25 333 47 6 13 6 25 -1 39 -13 25 -65 25 -357 1z"/>
<path d="M3260 2615 c-124 -105 -206 -183 -208 -195 -4 -25 14 -50 37 -50 10
0 110 79 224 176 153 130 207 182 207 198 0 26 -17 46 -40 46 -8 0 -107 -79
-220 -175z"/>
<path d="M5401 2746 c-7 -8 -11 -23 -9 -32 3 -19 401 -384 418 -384 5 0 19 9
30 20 16 16 18 24 9 42 -17 35 -387 363 -413 366 -12 2 -28 -4 -35 -12z"/>
<path d="M3419 2464 c-130 -174 -160 -220 -155 -238 7 -27 28 -38 52 -29 15 6
298 374 323 421 16 30 -1 62 -35 62 -20 0 -51 -36 -185 -216z"/>
<path d="M5276 2645 c-19 -20 -19 -20 -4 -48 26 -49 298 -425 311 -430 20 -7
57 20 56 41 0 9 -69 114 -153 232 -156 220 -176 239 -210 205z"/>
<path d="M3691 2548 c-10 -24 -60 -135 -110 -247 -51 -113 -91 -214 -89 -224
4 -29 33 -45 56 -31 19 12 230 467 231 500 1 26 -17 44 -46 44 -18 0 -28 -10
-42 -42z"/>
<path d="M5130 2551 c-8 -16 10 -67 91 -263 55 -134 105 -249 111 -255 16 -20
56 -15 68 7 8 16 -8 64 -91 262 -55 134 -106 249 -111 256 -16 18 -56 14 -68
-7z"/>
</g>
</svg>
